<?xml version="1.0" encoding="utf-8"?>
<!-- Generator: Adobe Illustrator 24.1.2, SVG Export Plug-In . SVG Version: 6.00 Build 0)  -->
<svg version="1.1" id="Слой_1" xmlns="http://www.w3.org/2000/svg" xmlns:xlink="http://www.w3.org/1999/xlink" x="0px" y="0px"
	 viewBox="0 0 200 200" style="enable-background:new 0 0 200 200;" xml:space="preserve">
<style type="text/css">
	.st0{fill:#ABE3FF;}
	.st1{fill:#7DB0C9;}
	.st2{fill:#4A7F99;}
	.st3{fill:#609CB9;}
	.st4{fill:#A8C0CC;}
	.st5{fill:#0E3548;}
	.st6{fill:#D8D8D8;}
	.st7{fill:#B7C9D2;}
	.st8{fill:#718890;}
	.st9{fill:#94AAB3;}
	.st10{fill:#2388BA;}
	.st11{fill:#8F8F8F;}
	.st12{fill:#714B67;}
</style>
<path class="st0" d="M139.2,77.1L99.7,100L60.1,77.1c0.8-1.4,2-2.6,3.4-3.4l31.4-18.1c3-1.7,6.6-1.7,9.6,0l31.4,18.1
	C137.3,74.5,138.4,75.7,139.2,77.1z"/>
<path class="st1" d="M99.7,100v45.7c-1.5,0-3-0.3-4.4-1l-31.7-18.3c-3-1.7-4.8-4.9-4.8-8.3V82c0-1.7,0.5-3.4,1.3-4.9L99.7,100z"/>
<path class="st2" d="M140.5,82V118c0,3.4-1.8,6.6-4.8,8.3l-31.8,18.4c-1.3,0.6-2.8,1-4.2,1V100l39.6-22.9
	C140.1,78.6,140.5,80.3,140.5,82z"/>
<g>
</g>
<g>
	<g>
		<g>
			<path class="st3" d="M116.6,100.7C116.6,100.7,116.6,100.7,116.6,100.7l0.6-0.1c0.1,0,0.2,0.1,0.2,0.3l-0.1,1.1
				c0.5,0.1,0.8,0.4,1.2,0.8l0.7-0.7c0,0,0,0,0.1-0.1c0.1,0,0.2,0,0.2,0.1l0.3,0.5c0.1,0.1,0,0.3-0.1,0.4l-0.6,0.9
				c0.2,0.6,0.2,1.2,0.2,2l0.7,0.1c0.1,0,0.2,0.1,0.1,0.3l-0.1,0.8c0,0.1-0.1,0.3-0.2,0.3c0,0,0,0-0.1,0l-0.7,0.2
				c-0.2,0.7-0.5,1.4-0.9,2l0.3,0.8c0,0.1,0,0.3-0.1,0.4l-0.5,0.6c0,0-0.1,0.1-0.1,0.1c-0.1,0-0.1,0-0.2,0l-0.4-0.6
				c-0.3,0.3-0.5,0.5-0.8,0.6c-0.2,0.1-0.4,0.2-0.6,0.3l-0.3,1.1c0,0.1-0.1,0.2-0.2,0.3c0,0-0.1,0-0.1,0l-0.5,0
				c-0.1,0-0.2-0.1-0.2-0.3l0.1-1.1c-0.4-0.1-0.8-0.3-1.2-0.8l-0.7,0.7c0,0,0,0-0.1,0.1c-0.1,0.1-0.2,0-0.2-0.1l-0.3-0.5
				c-0.1-0.1,0-0.3,0.1-0.4l0.6-0.9c-0.2-0.6-0.2-1.3-0.2-2l-0.7-0.1c-0.1,0-0.2-0.1-0.1-0.3l0.1-0.8c0-0.1,0.1-0.3,0.2-0.3
				c0,0,0,0,0.1,0l0.7-0.2c0.2-0.7,0.5-1.4,0.9-2l-0.3-0.8c0-0.1,0-0.3,0.1-0.4l0.5-0.6c0,0,0.1-0.1,0.1-0.1c0.1,0,0.2,0,0.2,0
				l0.4,0.6c0.3-0.2,0.5-0.4,0.8-0.6c0.2-0.1,0.4-0.2,0.7-0.3l0.2-1.1C116.4,100.9,116.5,100.8,116.6,100.7z"/>
		</g>
	</g>
</g>
<g>
	<g>
		<g>
			<path class="st4" d="M114.1,102c0.1,0,0.2,0,0.2,0l0.4,0.6c0.1-0.1,0.1-0.1,0.2-0.2c-1,1.8-1.4,3.9-1.3,5.8
				c0.1,1.7,0.7,3,1.7,3.7c0.1,0.1,0.1,0.2,0.1,0.3l0,0.2c0,0.1-0.1,0.2-0.2,0.3c0,0,0,0-0.1,0l-0.6,0c-0.1,0-0.1-0.1-0.1-0.2
				l0.1-1.2c-0.5-0.1-0.8-0.4-1.2-0.8l-0.7,0.7c0,0,0,0-0.1,0.1c-0.1,0-0.2,0-0.2-0.1l-0.3-0.5c-0.1-0.1,0-0.3,0.1-0.4l0.6-0.9
				c-0.2-0.6-0.2-1.2-0.2-2l-0.7-0.1c-0.1,0-0.2-0.1-0.1-0.3l0.1-0.9c0-0.1,0.1-0.2,0.1-0.2c0,0,0,0,0,0l0.8-0.2
				c0.2-0.7,0.5-1.4,0.9-2l-0.3-0.8c0-0.1,0-0.3,0.1-0.4L114.1,102C114.1,102.1,114.1,102.1,114.1,102z"/>
		</g>
	</g>
</g>
<g>
	<g>
		<g>
			<path class="st5" d="M119.9,105.6c0.2,0,0.3,0.3,0.3,0.6l-0.1,0.8c0,0.3-0.2,0.5-0.4,0.6c0,0-0.1,0-0.1,0l-0.6,0.1
				c-0.2,0.6-0.4,1.2-0.7,1.7l0.2,0.6c0.1,0.2,0,0.6-0.2,0.9l-0.5,0.6c-0.1,0.1-0.1,0.1-0.2,0.2c-0.1,0.1-0.3,0.1-0.4-0.1l-0.3-0.5
				c-0.2,0.2-0.4,0.4-0.7,0.5c-0.2,0.1-0.4,0.2-0.6,0.3l-0.2,0.8c-0.1,0.2-0.2,0.4-0.3,0.5c-0.1,0-0.1,0.1-0.2,0.1l-0.5,0
				c-0.2,0-0.4-0.2-0.3-0.5l0.1-0.8c-0.4-0.1-0.7-0.3-1-0.6l-0.5,0.6c0,0-0.1,0.1-0.1,0.1c-0.2,0.1-0.3,0.1-0.4-0.1l-0.3-0.5
				c-0.1-0.2-0.1-0.6,0.1-0.9l0.5-0.7c-0.1-0.5-0.2-1.1-0.2-1.7l-0.5-0.1c-0.2,0-0.3-0.3-0.3-0.6l0.1-0.8c0-0.3,0.2-0.5,0.4-0.6
				c0,0,0.1,0,0.1,0l0.6-0.1c0.2-0.6,0.4-1.2,0.7-1.7l-0.2-0.6c-0.1-0.2,0-0.6,0.2-0.9l0.5-0.6c0.1-0.1,0.1-0.1,0.2-0.2
				c0.1-0.1,0.3-0.1,0.4,0.1l0.3,0.5c0.2-0.2,0.4-0.4,0.7-0.5c0.2-0.1,0.4-0.2,0.5-0.3l0.2-0.8c0.1-0.2,0.2-0.5,0.3-0.5
				c0.1,0,0.1,0,0.2-0.1l0.5,0c0.2,0,0.4,0.2,0.3,0.5l-0.1,0.8c0.4,0.1,0.7,0.3,1,0.6l0.5-0.6c0,0,0.1-0.1,0.1-0.1
				c0.2-0.1,0.3-0.1,0.4,0.1l0.3,0.5c0.1,0.2,0.1,0.6-0.1,0.9l-0.5,0.7c0.1,0.5,0.2,1.1,0.2,1.7L119.9,105.6z M119.6,107.1l0.1-0.8
				l-0.7-0.1c-0.1,0-0.1-0.1-0.1-0.3c0-0.7,0-1.3-0.2-1.9c0-0.1,0-0.3,0.1-0.4l0.6-0.9l-0.3-0.5l-0.7,0.7c0,0,0,0-0.1,0.1
				c-0.1,0-0.1,0-0.2,0c-0.3-0.4-0.7-0.6-1.1-0.7c-0.1,0-0.1-0.1-0.1-0.3l0.1-1.1l-0.5,0l-0.3,1.1c0,0.1-0.1,0.2-0.2,0.3
				c0,0,0,0,0,0c-0.2,0.1-0.4,0.2-0.6,0.3c-0.3,0.2-0.5,0.3-0.7,0.6c0,0,0,0-0.1,0c-0.1,0-0.1,0-0.2,0l-0.4-0.6l-0.5,0.6l0.3,0.8
				c0,0.1,0,0.3-0.1,0.4c-0.4,0.6-0.6,1.2-0.8,1.9c0,0.1-0.1,0.2-0.2,0.3c0,0,0,0-0.1,0l-0.7,0.2l-0.1,0.8l0.7,0.1
				c0.1,0,0.1,0.1,0.1,0.3c0,0.7,0,1.3,0.2,1.8c0,0.1,0,0.3-0.1,0.4l-0.6,0.9l0.3,0.6l0.7-0.7c0,0,0,0,0.1-0.1c0.1,0,0.1,0,0.2,0
				c0.3,0.4,0.7,0.6,1.1,0.7c0.1,0,0.1,0.1,0.1,0.3l-0.1,1.1l0.5,0l0.3-1.1c0-0.1,0.1-0.2,0.2-0.3c0,0,0,0,0,0
				c0.2-0.1,0.4-0.2,0.6-0.3c0.3-0.2,0.5-0.3,0.7-0.6c0,0,0,0,0.1,0c0.1,0,0.2,0,0.2,0l0.4,0.6l0.5-0.6l-0.3-0.8
				c0-0.1,0-0.3,0.1-0.4c0.4-0.6,0.6-1.2,0.8-1.9c0-0.1,0.1-0.2,0.2-0.3c0,0,0,0,0.1,0L119.6,107.1"/>
		</g>
	</g>
</g>
<g>
	<g>
		<g>
			<path class="st6" d="M115.6,104.2C115.7,104.2,115.7,104.2,115.6,104.2c1.1-0.6,2.1,0.1,2.2,1.6c0.1,1.5-0.6,3.2-1.7,3.8
				c0,0,0,0,0,0c-1.1,0.6-2-0.1-2.2-1.6C113.8,106.5,114.6,104.8,115.6,104.2z"/>
		</g>
	</g>
</g>
<g>
	<g>
		<g>
			<path class="st5" d="M117.7,104.6c0.3,0.6,0.4,1.4,0.2,2.2c-0.1,0.8-0.5,1.7-1,2.3c-0.3,0.3-0.5,0.6-0.8,0.8
				c-0.3,0.2-0.5,0.2-0.8,0.3c-0.5,0-1-0.3-1.3-0.8c-0.3-0.6-0.4-1.4-0.2-2.2c0.1-0.8,0.5-1.7,1-2.3c0.3-0.3,0.5-0.6,0.8-0.8
				c0.3-0.2,0.5-0.2,0.8-0.3C116.9,103.7,117.4,104,117.7,104.6z M117.6,106.8c0.1-0.7,0-1.4-0.2-1.9c-0.2-0.5-0.6-0.7-1.1-0.7
				c-0.2,0-0.4,0.1-0.6,0.2c-0.3,0.2-0.5,0.4-0.7,0.7c-0.4,0.5-0.7,1.2-0.8,1.9c-0.1,0.7,0,1.4,0.2,1.9c0.2,0.5,0.6,0.7,1.1,0.7
				c0.2,0,0.4-0.1,0.7-0.2c0.2-0.1,0.5-0.4,0.7-0.7C117.2,108.2,117.5,107.5,117.6,106.8"/>
		</g>
	</g>
</g>
<g>
	<g>
		<g>
			<path class="st6" d="M124.8,106.4C124.8,106.4,124.9,106.4,124.8,106.4l0.5-0.1c0.1,0,0.2,0.1,0.1,0.2l-0.1,0.9
				c0.4,0.1,0.7,0.3,1,0.7l0.6-0.6c0,0,0,0,0.1,0c0.1,0,0.2,0,0.2,0l0.2,0.5c0,0.1,0,0.3,0,0.4l-0.5,0.8c0.2,0.5,0.2,1.1,0.2,1.7
				l0.6,0.1c0.1,0,0.1,0.1,0.1,0.3l-0.1,0.7c0,0.1-0.1,0.2-0.2,0.3c0,0,0,0,0,0l-0.6,0.1c-0.2,0.6-0.4,1.3-0.8,1.8l0.3,0.7
				c0,0.1,0,0.3-0.1,0.4l-0.4,0.5c0,0,0,0-0.1,0.1c-0.1,0-0.1,0-0.2,0l-0.4-0.6c-0.2,0.2-0.5,0.4-0.7,0.5c-0.2,0.1-0.4,0.2-0.6,0.3
				l-0.2,1c0,0.1-0.1,0.2-0.1,0.2c0,0,0,0-0.1,0l-0.5,0c-0.1,0-0.2-0.1-0.1-0.2l0.1-0.9c-0.4-0.1-0.7-0.3-1-0.7l-0.6,0.6
				c0,0,0,0-0.1,0c-0.1,0-0.1,0-0.2-0.1l-0.2-0.5c0-0.1,0-0.3,0.1-0.4l0.5-0.8c-0.2-0.5-0.2-1.1-0.2-1.7l-0.6-0.1
				c-0.1,0-0.1-0.1-0.1-0.3l0.1-0.7c0-0.1,0.1-0.2,0.2-0.3c0,0,0,0,0.1,0l0.6-0.1c0.2-0.6,0.4-1.2,0.8-1.8l-0.3-0.7
				c0-0.1,0-0.3,0.1-0.4l0.4-0.5c0,0,0-0.1,0.1-0.1c0.1,0,0.1,0,0.2,0l0.4,0.6c0.2-0.2,0.4-0.4,0.7-0.5c0.2-0.1,0.4-0.2,0.6-0.3
				l0.2-1C124.7,106.5,124.7,106.4,124.8,106.4z"/>
		</g>
	</g>
</g>
<g>
	<g>
		<g>
			<path class="st7" d="M127.7,111.1c0.1,0,0.1,0.1,0.1,0.3l-0.1,0.8c0,0.1,0,0.1-0.1,0.2c0,0,0,0,0,0l-0.7,0.2
				c-0.2,0.6-0.4,1.3-0.8,1.8l0.3,0.7c0,0.1,0,0.3-0.1,0.4l-0.4,0.5c0,0,0,0.1-0.1,0.1c-0.1,0-0.1,0-0.2,0l-0.4-0.6
				c-0.1,0.1-0.3,0.3-0.4,0.4c0.9-1.6,1.6-3.7,1.3-5.5l-0.7-2.6c0.4,0.1,0.7,0.3,1,0.7l0.6-0.7c0,0,0,0,0,0c0,0,0.1,0,0.1,0l0.3,0.5
				c0,0.1,0,0.3,0,0.4l-0.5,0.8c0.2,0.5,0.2,1.1,0.2,1.7L127.7,111.1z"/>
		</g>
		<g>
			<path class="st7" d="M123.3,108.4c-0.8,1.6-1.2,3.4-1.1,5.1c0.1,1.5,0.7,2.7,1.5,3.3c0.1,0.1,0.1,0.2,0.1,0.3l0,0.2
				c0,0.1-0.1,0.2-0.1,0.2c0,0,0,0-0.1,0l-0.5,0c-0.1,0-0.1-0.1-0.1-0.2l0.1-1c-0.4-0.1-0.7-0.3-1-0.7l-0.6,0.6c0,0,0,0-0.1,0
				c-0.1,0-0.1,0-0.2-0.1l-0.2-0.5c0-0.1,0-0.3,0.1-0.4l0.5-0.8c-0.2-0.5-0.2-1.1-0.2-1.7l-0.6-0.1c-0.1,0-0.1-0.1-0.1-0.3l0.1-0.8
				c0-0.1,0.1-0.1,0.1-0.2c0,0,0,0,0,0l0.7-0.2c0.2-0.6,0.4-1.3,0.8-1.8l-0.3-0.7c0-0.1,0-0.3,0.1-0.4l0.4-0.5c0,0,0.1-0.1,0.1-0.1
				c0.1,0,0.1,0,0.2,0l0.4,0.6C123.2,108.5,123.3,108.4,123.3,108.4z"/>
		</g>
	</g>
</g>
<g>
	<g>
		<g>
			<path class="st5" d="M127.8,110.8c0.2,0,0.3,0.3,0.2,0.6l-0.1,0.7c0,0.3-0.2,0.5-0.3,0.6c0,0-0.1,0-0.1,0l-0.5,0.1
				c-0.2,0.5-0.4,1-0.6,1.5l0.2,0.5c0.1,0.2,0,0.6-0.2,0.8l-0.4,0.5c-0.1,0.1-0.1,0.1-0.2,0.1c-0.1,0.1-0.3,0.1-0.4-0.1l-0.3-0.4
				c-0.2,0.2-0.4,0.3-0.6,0.4c-0.2,0.1-0.3,0.2-0.5,0.2l-0.2,0.7c-0.1,0.2-0.2,0.4-0.3,0.5c0,0-0.1,0-0.1,0l-0.5,0
				c-0.2,0-0.3-0.2-0.3-0.5l0.1-0.7c-0.3-0.1-0.6-0.3-0.8-0.5l-0.4,0.5c0,0-0.1,0.1-0.1,0.1c-0.2,0.1-0.3,0.1-0.4-0.1l-0.2-0.5
				c-0.1-0.2-0.1-0.6,0.1-0.8l0.4-0.6c-0.1-0.4-0.2-0.9-0.1-1.4l-0.4,0c-0.2,0-0.3-0.3-0.2-0.6l0.1-0.7c0-0.3,0.2-0.5,0.3-0.6
				c0,0,0.1,0,0.1,0l0.5-0.1c0.2-0.5,0.4-1,0.6-1.5l-0.2-0.5c-0.1-0.2,0-0.6,0.2-0.8l0.4-0.5c0.1-0.1,0.1-0.1,0.2-0.1
				c0.1-0.1,0.3-0.1,0.4,0.1l0.3,0.4c0.2-0.2,0.4-0.3,0.6-0.4c0.1-0.1,0.3-0.2,0.4-0.2l0.2-0.7c0.1-0.2,0.2-0.4,0.3-0.5
				c0,0,0.1,0,0.1,0l0.5,0c0.2,0,0.3,0.2,0.3,0.5l-0.1,0.7c0.3,0.1,0.6,0.3,0.8,0.5l0.4-0.5c0,0,0.1-0.1,0.1-0.1
				c0.2-0.1,0.3-0.1,0.4,0.1l0.2,0.5c0.1,0.2,0.1,0.6-0.1,0.8l-0.4,0.6c0.1,0.4,0.2,0.9,0.1,1.4L127.8,110.8z M127.5,112.1l0.1-0.6
				l-0.6-0.1c-0.1,0-0.1-0.1-0.1-0.3c0-0.6,0-1.1-0.2-1.6c0-0.1,0-0.3,0.1-0.4l0.5-0.7l-0.2-0.4l-0.6,0.6c0,0,0,0-0.1,0.1
				c-0.1,0-0.1,0-0.2,0c-0.3-0.3-0.6-0.5-0.9-0.6c-0.1,0-0.1-0.1-0.1-0.3l0.1-0.9l-0.4,0l-0.2,0.9c0,0.1-0.1,0.2-0.2,0.3
				c0,0,0,0,0,0c-0.2,0.1-0.4,0.1-0.5,0.2c-0.2,0.1-0.4,0.3-0.6,0.5c0,0,0,0-0.1,0c-0.1,0-0.1,0-0.2,0l-0.4-0.5l-0.4,0.5l0.3,0.7
				c0,0.1,0,0.3-0.1,0.4c-0.3,0.5-0.5,1.1-0.7,1.7c0,0.1-0.1,0.2-0.2,0.3c0,0,0,0-0.1,0l-0.6,0.1l-0.1,0.6l0.6,0.1
				c0.1,0,0.1,0.1,0.1,0.3c0,0.6,0,1.1,0.2,1.6c0,0.1,0,0.3-0.1,0.4l-0.5,0.7l0.2,0.4l0.6-0.6c0,0,0,0,0.1-0.1c0.1,0,0.1,0,0.2,0
				c0.3,0.3,0.6,0.5,0.9,0.6c0.1,0,0.1,0.1,0.1,0.3l-0.1,0.9l0.4,0l0.2-0.9c0-0.1,0.1-0.2,0.2-0.3c0,0,0,0,0.1,0
				c0.2-0.1,0.3-0.1,0.5-0.2c0.2-0.1,0.4-0.3,0.6-0.5c0,0,0,0,0.1,0c0.1,0,0.1,0,0.2,0l0.4,0.6l0.4-0.5l-0.3-0.7
				c0-0.1,0-0.3,0.1-0.4c0.3-0.5,0.5-1.1,0.7-1.7c0-0.1,0.1-0.2,0.2-0.3c0,0,0,0,0.1,0L127.5,112.1"/>
		</g>
	</g>
</g>
<g>
</g>
<g>
	<g>
		<g>
			<path class="st5" d="M124.7,109.1c1-0.1,1.6,1.1,1.4,2.7c-0.1,0.6-0.3,1.2-0.6,1.6c-0.3,0.5-0.6,0.8-1,1.1c0,0,0,0,0,0
				c-0.2,0.1-0.4,0.2-0.7,0.2c-1,0.1-1.6-1.2-1.4-2.7c0.1-0.7,0.4-1.5,0.9-2c0.2-0.3,0.5-0.5,0.7-0.7
				C124.2,109.2,124.4,109.2,124.7,109.1z M125.7,111.9c0-0.3,0.1-0.6,0-0.8c-0.1-0.9-0.5-1.5-1.2-1.4c-0.2,0-0.4,0.1-0.5,0.2
				c-0.2,0.1-0.4,0.3-0.6,0.6c-0.4,0.5-0.6,1.1-0.7,1.7c-0.2,1.3,0.3,2.3,1.1,2.2c0.2,0,0.4-0.1,0.6-0.2
				C125,113.7,125.6,112.9,125.7,111.9"/>
		</g>
	</g>
</g>
<g>
	<g>
		<g>
			<path class="st8" d="M116.4,113.9C116.4,113.9,116.4,113.8,116.4,113.9l0.5,0c0.1,0,0.1,0.1,0.1,0.2l-0.1,0.8
				c0.3,0.1,0.7,0.3,0.9,0.6l0.5-0.5c0,0,0,0,0.1,0c0.1,0,0.1,0,0.2,0.1l0.2,0.4c0,0.1,0,0.2,0,0.3l-0.5,0.7c0.1,0.5,0.2,1,0.2,1.5
				l0.5,0c0.1,0,0.1,0.1,0.1,0.2l-0.1,0.6c0,0.1-0.1,0.2-0.1,0.2c0,0,0,0,0,0l-0.6,0.1c-0.2,0.6-0.4,1.1-0.7,1.6l0.2,0.6
				c0,0.1,0,0.2-0.1,0.3l-0.4,0.5c0,0,0,0-0.1,0.1c-0.1,0-0.1,0-0.2,0l-0.3-0.5c-0.2,0.2-0.4,0.4-0.6,0.5c-0.2,0.1-0.3,0.2-0.5,0.2
				l-0.2,0.8c0,0.1-0.1,0.2-0.1,0.2c0,0,0,0-0.1,0l-0.4,0c-0.1,0-0.1-0.1-0.1-0.2l0.1-0.8c-0.4-0.1-0.7-0.3-0.9-0.6l-0.5,0.6
				c0,0,0,0,0,0c-0.1,0-0.1,0-0.2-0.1l-0.2-0.4c0-0.1,0-0.2,0-0.3l0.4-0.7c-0.1-0.5-0.2-1-0.2-1.5l-0.5,0c-0.1,0-0.1-0.1-0.1-0.2
				l0.1-0.6c0-0.1,0.1-0.2,0.1-0.2c0,0,0,0,0,0l0.6-0.1c0.2-0.6,0.4-1.1,0.7-1.6l-0.2-0.6c0-0.1,0-0.2,0.1-0.3l0.4-0.5
				c0,0,0,0,0.1-0.1c0.1,0,0.1,0,0.2,0l0.3,0.5c0.2-0.2,0.4-0.4,0.6-0.5c0.2-0.1,0.3-0.2,0.5-0.2l0.2-0.8
				C116.3,114,116.3,113.9,116.4,113.9z"/>
		</g>
	</g>
</g>
<g>
	<g>
		<g>
			<path class="st9" d="M114.7,114.8c0.1,0,0.1,0,0.2,0l0.3,0.5c0.1,0,0.1-0.1,0.1-0.1c-0.7,1.4-1.1,3.1-1,4.5
				c0.1,1.4,0.6,2.4,1.3,2.9c0.1,0,0.1,0.1,0.1,0.3l0,0.1c0,0.1-0.1,0.2-0.1,0.2c0,0,0,0-0.1,0l-0.5,0c0,0-0.1,0-0.1-0.1l0.1-0.9
				c-0.3-0.1-0.7-0.3-0.9-0.6l-0.5,0.6c0,0,0,0,0,0c-0.1,0-0.1,0-0.2,0l-0.2-0.4c0-0.1,0-0.2,0-0.3l0.4-0.7c-0.1-0.5-0.2-1-0.2-1.5
				l-0.5-0.1c-0.1,0-0.1-0.1-0.1-0.2l0.1-0.7c0-0.1,0-0.1,0.1-0.2c0,0,0,0,0,0l0.6-0.1c0.2-0.6,0.4-1.1,0.7-1.6l-0.2-0.6
				c0-0.1,0-0.2,0.1-0.3L114.7,114.8C114.6,114.8,114.7,114.8,114.7,114.8z"/>
		</g>
	</g>
</g>
<g>
	<g>
		<g>
			<path class="st5" d="M119,117.6c0.2,0,0.3,0.3,0.2,0.5l-0.1,0.6c0,0.2-0.2,0.5-0.3,0.5c0,0-0.1,0-0.1,0l-0.4,0.1
				c-0.1,0.5-0.3,0.9-0.5,1.3l0.2,0.5c0.1,0.2,0,0.5-0.2,0.8l-0.4,0.5c0,0.1-0.1,0.1-0.1,0.1c-0.1,0.1-0.3,0.1-0.4-0.1l-0.2-0.4
				c-0.2,0.2-0.3,0.3-0.5,0.4c-0.1,0.1-0.3,0.1-0.4,0.2l-0.1,0.6c-0.1,0.2-0.2,0.4-0.3,0.5l-0.1,0l-0.4,0c-0.2,0-0.3-0.2-0.3-0.5
				l0.1-0.6c-0.3-0.1-0.5-0.2-0.7-0.5l-0.4,0.4c0,0-0.1,0.1-0.1,0.1c-0.1,0.1-0.3,0.1-0.4-0.1l-0.2-0.4c-0.1-0.2-0.1-0.5,0.1-0.8
				l0.3-0.5c-0.1-0.4-0.1-0.8-0.1-1.2l-0.4,0c-0.2,0-0.3-0.2-0.2-0.5l0.1-0.6c0-0.2,0.2-0.5,0.3-0.5c0,0,0.1,0,0.1,0l0.4-0.1
				c0.1-0.5,0.3-0.9,0.5-1.3l-0.2-0.5c-0.1-0.2,0-0.5,0.2-0.8l0.4-0.5c0-0.1,0.1-0.1,0.2-0.1c0.1-0.1,0.3-0.1,0.4,0.1l0.2,0.4
				c0.2-0.2,0.3-0.3,0.5-0.4c0.1-0.1,0.3-0.1,0.4-0.2l0.1-0.6c0.1-0.2,0.2-0.4,0.3-0.5c0,0,0.1,0,0.1,0l0.4,0c0.2,0,0.3,0.2,0.3,0.5
				l-0.1,0.6c0.3,0.1,0.5,0.2,0.7,0.5l0.4-0.4c0,0,0.1-0.1,0.1-0.1c0.1-0.1,0.3-0.1,0.4,0.1l0.2,0.4c0.1,0.2,0.1,0.5-0.1,0.8
				l-0.3,0.5c0.1,0.4,0.1,0.8,0.1,1.2L119,117.6z M118.7,118.8l0.1-0.5l-0.5,0c-0.1,0-0.1-0.1-0.1-0.3c0-0.5,0-1-0.2-1.4
				c0-0.1,0-0.3,0.1-0.4l0.4-0.6l-0.2-0.3l-0.5,0.5c0,0,0,0-0.1,0.1c-0.1,0-0.1,0-0.2,0c-0.2-0.3-0.5-0.5-0.8-0.5
				c-0.1,0-0.1-0.1-0.1-0.3l0.1-0.8l-0.3,0l-0.2,0.8c0,0.1-0.1,0.2-0.2,0.3c0,0,0,0,0,0c-0.2,0-0.3,0.1-0.5,0.2
				c-0.2,0.1-0.4,0.3-0.6,0.4c0,0,0,0-0.1,0c-0.1,0-0.1,0-0.2,0l-0.3-0.5l-0.3,0.4l0.2,0.6c0,0.1,0,0.3-0.1,0.4
				c-0.3,0.4-0.5,0.9-0.6,1.5c0,0.1-0.1,0.2-0.2,0.2c0,0,0,0-0.1,0l-0.5,0.1l-0.1,0.5l0.5,0.1c0.1,0,0.1,0.1,0.1,0.2
				c0,0.5,0,1,0.1,1.4c0,0.1,0,0.3-0.1,0.4l-0.4,0.6l0.2,0.3l0.5-0.5c0,0,0,0,0.1-0.1c0.1,0,0.1,0,0.2,0c0.2,0.3,0.5,0.5,0.8,0.5
				c0.1,0,0.1,0.1,0.1,0.3l-0.1,0.8l0.3,0l0.2-0.8c0-0.1,0.1-0.2,0.2-0.3c0,0,0,0,0,0c0.2-0.1,0.3-0.1,0.5-0.2
				c0.2-0.1,0.4-0.3,0.6-0.4c0,0,0,0,0.1,0c0.1,0,0.1,0,0.2,0l0.3,0.5l0.3-0.4l-0.2-0.6c0-0.1,0-0.3,0.1-0.4
				c0.3-0.4,0.5-0.9,0.6-1.5c0-0.1,0.1-0.2,0.2-0.2c0,0,0,0,0.1,0L118.7,118.8"/>
		</g>
	</g>
</g>
<g>
	<g>
		<g>
			<path class="st6" d="M115.7,116.6C115.7,116.6,115.7,116.6,115.7,116.6c0.8-0.5,1.6,0.1,1.7,1.2c0.1,1.2-0.5,2.5-1.3,3
				c0,0,0,0,0,0c-0.8,0.5-1.6-0.1-1.7-1.2C114.2,118.4,114.8,117.1,115.7,116.6z"/>
		</g>
	</g>
</g>
<g>
	<g>
		<g>
			<path class="st5" d="M116.3,116.2c0.9-0.1,1.4,1,1.2,2.4c-0.1,0.7-0.4,1.3-0.8,1.8c-0.2,0.3-0.4,0.5-0.6,0.6c0,0,0,0,0,0
				c-0.2,0.1-0.4,0.2-0.6,0.2c-0.4,0-0.8-0.2-1-0.7c-0.2-0.5-0.3-1.1-0.2-1.8c0.2-1.1,0.8-2,1.4-2.4
				C115.9,116.3,116.1,116.2,116.3,116.2z M117.2,118.7c0.2-1.1-0.3-2-1-2c-0.2,0-0.3,0.1-0.5,0.2c-0.5,0.3-1,1.1-1.2,2
				c-0.1,0.5,0,1.1,0.1,1.4c0.2,0.4,0.5,0.6,0.8,0.5c0.2,0,0.3-0.1,0.5-0.2c0.2-0.1,0.4-0.3,0.5-0.5
				C116.9,119.7,117.2,119.2,117.2,118.7"/>
		</g>
	</g>
</g>
<g>
	<g>
		<g>
			<path class="st10" d="M112.6,129.4l18.1-10.5c0.5-0.3,1,0,1,0.7c0,0.3,0,0.7-0.2,1c-0.2,0.3-0.4,0.6-0.6,0.7l-18.1,10.5
				c-0.5,0.3-1,0-1-0.7c0-0.3,0-0.7,0.2-1C112.1,129.8,112.3,129.5,112.6,129.4z"/>
		</g>
	</g>
</g>
<g>
	<g>
		<g>
			<path class="st10" d="M112.5,128.5l18.1-10.6c0.5-0.3,1,0,1,0.7c0,0.3,0,0.7-0.2,1c-0.1,0.3-0.4,0.6-0.6,0.7L112.7,131
				c-0.5,0.3-1,0-1-0.7c0-0.3,0-0.7,0.2-1C112.1,128.9,112.3,128.6,112.5,128.5z"/>
		</g>
	</g>
</g>
<g>
	<g>
		<g>
			<path class="st6" d="M127.2,120.6l3.2-1.9c0.4-0.3,0.9-0.1,1,0.5c0,0.1,0,0.2,0,0.3c0.1,0.7-0.3,1.5-0.8,1.8c0,0,0,0,0,0
				l-3.2,1.9L127.2,120.6z"/>
		</g>
	</g>
</g>
<g>
	<g>
		<g>
			<path class="st5" d="M130.7,118c0.6-0.4,1.2,0,1.2,0.9c0,0.4-0.1,0.9-0.2,1.3c-0.2,0.4-0.4,0.7-0.7,0.9l-18.1,10.6
				c-0.6,0.4-1.2-0.1-1.2-0.9c0-0.4,0.1-0.9,0.2-1.3c0.2-0.4,0.4-0.7,0.7-0.9L130.7,118z M131.4,120c0.1-0.3,0.2-0.5,0.2-0.8
				c0-0.5-0.4-0.8-0.8-0.6l-18.1,10.5c-0.2,0.1-0.4,0.3-0.5,0.6c-0.1,0.3-0.2,0.5-0.2,0.8c0,0.5,0.4,0.8,0.8,0.6l18.1-10.5
				C131.1,120.4,131.3,120.2,131.4,120"/>
		</g>
		<g>
			<path class="st5" d="M124.8,103.2c-0.1,0.1-0.2,0-0.2-0.2c0-0.2,0.1-0.3,0.2-0.4c1.6-0.9,3.2-0.7,4.3,0.5c0.1,0.1,0.1,0.3,0,0.4
				l-0.1,0.1c-0.1,0-0.1,0-0.2,0C127.7,102.6,126.3,102.4,124.8,103.2z"/>
		</g>
		<g>
			<path class="st5" d="M130,106.4c-0.1-0.6-0.3-1.1-0.5-1.6c-0.1-0.1,0-0.3,0.1-0.4c0,0,0.1-0.1,0.1-0.1c0.1,0,0.2,0,0.2,0.1
				c0.2,0.5,0.4,1.1,0.6,1.7c0,0.2,0,0.3-0.2,0.4l0,0C130.1,106.6,130,106.5,130,106.4z"/>
		</g>
	</g>
</g>
<g>
	<g>
		<path class="st11" d="M90.7,124.3c-2.2-1.3-3.9-4.2-3.8-6.5c0-2.3,1.8-3.1,4-1.8c2.2,1.3,3.9,4.2,3.8,6.5l0,0
			C94.6,124.8,92.8,125.6,90.7,124.3z M90.7,122.6c1.3,0.8,2.3,0.3,2.3-1.1c0-1.4-1-3.1-2.2-3.8c-1.3-0.8-2.3-0.3-2.3,1.1
			C88.4,120.1,89.5,121.8,90.7,122.6z M82.5,119.3c-2.2-1.3-3.9-4.2-3.8-6.4c0-2.2,1.8-3,4-1.7c2.2,1.3,3.9,4.2,3.8,6.4l0,0
			C86.4,119.8,84.7,120.6,82.5,119.3z M82.5,117.6c1.3,0.8,2.3,0.3,2.3-1c0-1.3-1-3-2.2-3.8c-1.3-0.8-2.3-0.3-2.3,1
			C80.3,115.1,81.3,116.8,82.5,117.6z M78.3,112.6c0,2.2-1.8,3-4,1.7c-2.2-1.3-3.9-4.2-3.8-6.4c0-2.2,1.7-3,4-1.6
			c0.9,0.5,1.6,1.2,2.3,2l0.1-2.3c0-0.4,0.4-0.6,0.8-0.3c0.4,0.3,0.8,0.8,0.8,1.3L78.3,112.6z M74.4,112.6c1.3,0.8,2.3,0.3,2.3-1
			c0-1.3-1-3-2.2-3.7c-1.3-0.8-2.3-0.3-2.3,1C72.1,110.2,73.1,111.9,74.4,112.6z"/>
		<path class="st12" d="M66.1,109.3c-2.2-1.3-3.9-4.1-3.8-6.2c0-2.1,1.8-2.8,4-1.6c2.2,1.3,3.9,4.1,3.8,6.2l0,0
			C70.1,109.9,68.3,110.6,66.1,109.3z M66.2,107.6c1.3,0.8,2.3,0.4,2.3-0.9c0-1.3-1-2.9-2.2-3.7c-1.3-0.8-2.3-0.3-2.3,0.9
			C63.9,105.2,64.9,106.9,66.2,107.6z"/>
	</g>
</g>
</svg>
