<svg xmlns="http://www.w3.org/2000/svg" viewBox="0 0 80 80" id="Configuration"><path fill="#29a1dc" d="M69.58 42.65c0 17.597-14.26 32-32 32-17.562 0-32-14.182-32-32 0-17.67 14.32-32 32-32 17.658 0 32 14.308 32 32z" class="color75d38f svgShape"></path><path fill="#eff2f4" d="m67.41 19.73-2.99-.8a.738.738 0 0 1-.52-.52c-.28-1.05-.7-2.05-1.23-2.98a.732.732 0 0 1-.01-.73l1.56-2.68c.16-.28.12-.65-.12-.88l-1.94-1.95a.74.74 0 0 0-.89-.11l-2.68 1.55c-.22.13-.5.13-.73 0-.92-.53-1.92-.95-2.97-1.24a.709.709 0 0 1-.52-.51l-.8-2.99a.72.72 0 0 0-.71-.54h-2.75c-.33 0-.62.22-.71.54l-.79 2.99c-.07.25-.27.44-.52.51-.21.06-.42.12-.63.2-.55.17-1.08.39-1.59.64-.26.13-.51.26-.76.4-.06.03-.12.06-.18.07-.05.02-.1.03-.15.02a.09.09 0 0 1-.05.01.731.731 0 0 1-.293-.075c-.019-.01-.04-.015-.057-.025l-2.67-1.55a.74.74 0 0 0-.89.11l-1.5 1.51h-.01l-.43.44h-.01c-.1.11-.17.24-.2.37-.03.17 0 .35.09.51l1.55 2.68c.03.05.06.11.07.17a.71.71 0 0 1-.07.56c-.53.93-.95 1.93-1.24 2.99a.756.756 0 0 1-.52.51l-2.98.8c-.12.03-.23.09-.31.17-.03.02-.06.05-.08.09-.1.11-.16.27-.16.44v2.75c0 .09.02.17.05.25.01.03.03.07.05.11.03.06.08.13.14.18.08.08.19.14.31.17l2.98.79c.26.07.45.27.52.52.29 1.06.71 2.06 1.24 2.98.13.23.13.5 0 .73l-1.55 2.68c-.09.16-.12.34-.09.51.03.14.1.27.2.38h.01l1.94 1.94c.24.24.6.29.89.12l2.67-1.55c.05-.03.11-.06.17-.08.19-.05.39-.02.56.08.25.14.5.27.76.4.51.25 1.04.47 1.59.64.21.08.42.14.63.2.25.06.45.26.52.51l.79 2.99c.09.32.38.54.71.54h2.75c.34 0 .63-.22.71-.54l.8-2.99c.06-.25.26-.45.52-.51 1.05-.29 2.05-.71 2.97-1.24.23-.13.51-.14.73 0l2.68 1.55c.29.17.65.12.89-.12l1.94-1.94c.24-.24.28-.6.12-.89l-1.56-2.68c-.13-.22-.12-.5.01-.73.53-.92.95-1.92 1.23-2.98.04-.15.14-.29.26-.38.08-.07.16-.11.26-.14l2.99-.79a.72.72 0 0 0 .54-.71v-2.75c0-.33-.22-.62-.54-.7zm-14.63 9.38c-.82.15-1.69.16-2.58.01-1.33-.23-2.7-.81-4.04-1.81a.722.722 0 0 1-.18-.17c-.83-1.11-1.36-2.23-1.65-3.33-.22-.84-.3-1.67-.24-2.46.19-3.2 2.41-5.86 5.4-6.68a7.38 7.38 0 0 1 3.32-.17s.01.01.02.01c1.3.22 2.66.8 3.99 1.79.06.05.12.11.17.18.36.49.67.98.93 1.47l.01.01c.44.86.73 1.72.87 2.56a7.41 7.41 0 0 1-6.02 8.59z" class="coloreff1f4 svgShape"></path><path fill="none" d="M46.474 21.81c0 2.69 2.128 4.87 4.789 4.99.076.004.148.023.225.023a5.016 5.016 0 0 0 5.014-5.014c0-2.636-2.045-4.775-4.63-4.975-.129-.01-.252-.038-.384-.038a5.016 5.016 0 0 0-5.014 5.013z"></path><path fill="#acb5ba" d="M59.488 21.81c0-4.22-3.274-7.671-7.417-7.971a1.593 1.593 0 0 1-.199 2.996c2.585.2 4.63 2.339 4.63 4.974a5.016 5.016 0 0 1-5.014 5.014c-.077 0-.149-.02-.225-.023a1.54 1.54 0 0 0-1.294 1.518c0 .697.465 1.279 1.099 1.47.14.008.278.022.42.022 4.416 0 8-3.585 8-8z" class="coloracb3ba svgShape"></path><path fill="#cedae0" d="M46.903 23.81a4.946 4.946 0 0 1-.428-2 5.015 5.015 0 0 1 5.013-5.014c.132 0 .255.029.384.039a1.593 1.593 0 0 0 .199-2.996c-.193-.014-.386-.03-.583-.03-4.416 0-8 3.584-8 8 0 .692.096 1.36.262 2.001h3.153z" class="colorced5e0 svgShape"></path><path fill="#cedae0" d="M51.713 26.8c-.076.004-.148.023-.225.023a5.016 5.016 0 0 1-5.014-5.014c0-.155.03-.303.044-.454H43.51c-.009.15-.022.301-.022.454 0 4.416 3.584 8 8 8 .142 0 .28-.013.42-.02a1.538 1.538 0 0 0 1.099-1.471 1.54 1.54 0 0 0-1.294-1.518z" class="colorced5e0 svgShape"></path><path fill="none" d="M57.151 21.81c0 3.038-2.403 5.5-5.409 5.637-.086.004-.167.026-.254.026a5.666 5.666 0 0 1-5.663-5.664c0-2.977 2.31-5.394 5.23-5.62.145-.01.285-.043.433-.043a5.666 5.666 0 0 1 5.663 5.663z"></path><path fill="#e6ebee" d="M48.302 33.727c-3.969-2.49-6.62-6.892-6.62-11.923 0-5.02 2.651-9.423 6.62-11.912v-.547c-1.13.29-2.198.72-3.19 1.287a.73.73 0 0 1-.732.003L41.708 9.08a.733.733 0 0 0-.887.115l-1.944 1.944a.733.733 0 0 0-.116.886l1.55 2.675c.13.225.126.5-.002.726-.528.932-.951 1.93-1.241 2.99a.73.73 0 0 1-.514.519l-2.981.79a.733.733 0 0 0-.546.709v2.753c0 .332.224.623.546.708l2.98.79a.733.733 0 0 1 .515.52c.29 1.052.712 2.053 1.238 2.976.13.228.135.505.003.732l-1.549 2.683a.733.733 0 0 0 .117.885l1.944 1.944c.235.235.6.283.887.115l2.672-1.555a.73.73 0 0 1 .731.003 12.88 12.88 0 0 0 3.191 1.286v-.546z" class="colore6e9ee svgShape"></path><path fill="#3f5c6b" d="m74.019 56.599-2.22-.594a.548.548 0 0 1-.387-.386 9.333 9.333 0 0 0-.913-2.213.543.543 0 0 1-.007-.542l1.158-1.99a.54.54 0 0 0-.09-.654l-1.44-1.448a.55.55 0 0 0-.66-.082l-1.99 1.151a.544.544 0 0 1-.543 0 9.476 9.476 0 0 0-2.206-.92.526.526 0 0 1-.386-.38l-.594-2.22a.535.535 0 0 0-.527-.4h-2.042a.548.548 0 0 0-.528.4l-.586 2.22a.551.551 0 0 1-.386.38c-.156.044-.312.089-.468.148-.409.126-.802.29-1.181.475-.193.097-.379.193-.564.297-.045.022-.09.045-.134.052-.037.015-.074.022-.112.015-.014.007-.022.007-.037.007a.542.542 0 0 1-.217-.056c-.014-.006-.03-.01-.042-.018l-1.983-1.15a.55.55 0 0 0-.661.08l-1.114 1.122h-.007l-.32.327h-.007a.625.625 0 0 0-.149.275.57.57 0 0 0 .067.378l1.151 1.99a.378.378 0 0 1 .052.127.528.528 0 0 1-.052.416 9.588 9.588 0 0 0-.92 2.22.56.56 0 0 1-.386.379l-2.214.594a.5.5 0 0 0-.23.126.177.177 0 0 0-.06.067.49.49 0 0 0-.118.327v2.042c0 .067.014.126.037.186.007.022.022.052.037.082.022.044.06.096.104.133a.5.5 0 0 0 .23.126l2.213.587c.193.052.334.2.386.386.216.787.528 1.53.921 2.213a.543.543 0 0 1 0 .542l-1.15 1.99a.57.57 0 0 0-.068.38c.023.103.075.2.149.281h.007l1.44 1.441a.541.541 0 0 0 .662.09l1.983-1.152a.654.654 0 0 1 .126-.06.545.545 0 0 1 .416.06c.185.104.371.2.564.297.379.186.772.35 1.18.475.157.06.313.104.469.149a.539.539 0 0 1 .386.379l.587 2.22a.548.548 0 0 0 .527.401h2.042a.535.535 0 0 0 .527-.4l.594-2.221a.515.515 0 0 1 .386-.379 9.484 9.484 0 0 0 2.206-.92.526.526 0 0 1 .542 0l1.99 1.15c.216.126.483.09.661-.089l1.441-1.44a.551.551 0 0 0 .089-.661l-1.158-1.99a.544.544 0 0 1 .007-.543 9.081 9.081 0 0 0 .914-2.213.539.539 0 0 1 .193-.282.488.488 0 0 1 .193-.104l2.22-.587a.535.535 0 0 0 .401-.527V57.12a.533.533 0 0 0-.401-.52zm-10.865 6.966a5.526 5.526 0 0 1-1.915.007c-.988-.17-2.005-.601-3-1.344a.537.537 0 0 1-.134-.126c-.617-.824-1.01-1.656-1.226-2.473a5.556 5.556 0 0 1-.178-1.827 5.483 5.483 0 0 1 4.01-4.96 5.479 5.479 0 0 1 2.466-.127s.007.007.015.007c.965.164 1.975.595 2.963 1.33.044.037.089.081.126.133.267.364.498.728.69 1.092l.008.007a6.55 6.55 0 0 1 .646 1.902 5.504 5.504 0 0 1-4.47 6.379z" class="color3f596b svgShape"></path><path fill="none" d="M58.472 58.143a3.716 3.716 0 0 0 3.556 3.706c.057.003.11.017.167.017a3.725 3.725 0 0 0 3.723-3.723c0-1.957-1.518-3.546-3.438-3.694-.095-.008-.187-.029-.285-.029a3.725 3.725 0 0 0-3.723 3.723z"></path><path fill="#22353f" d="M68.136 58.143a5.94 5.94 0 0 0-5.508-5.92 1.183 1.183 0 0 1-.148 2.225c1.92.15 3.438 1.738 3.438 3.695a3.725 3.725 0 0 1-3.723 3.723c-.057 0-.11-.014-.167-.017-.544.09-.961.558-.961 1.128 0 .517.345.949.816 1.092.104.005.206.015.312.015a5.944 5.944 0 0 0 5.941-5.94z" class="color22303f svgShape"></path><path fill="#2b424e" d="M62.195 52.203c-.516 0-1.011.07-1.485.19v2.347a3.583 3.583 0 0 1 1.485-.318 3.711 3.711 0 0 1 3.71 3.52 1.14 1.14 0 0 1 2.212-.113c.008.05.008.106.015.155a5.947 5.947 0 0 0-5.937-5.782z" class="color2b3b4e svgShape"></path><path fill="#22353f" d="M58.79 59.629a3.672 3.672 0 0 1-.318-1.486 3.725 3.725 0 0 1 3.723-3.723c.098 0 .19.021.285.029a1.183 1.183 0 0 0 .148-2.225c-.144-.01-.287-.022-.433-.022a5.944 5.944 0 0 0-5.941 5.941c0 .514.072 1.01.195 1.486h2.341z" class="color22303f svgShape"></path><path fill="#2b424e" d="M62.362 61.85c-.057.002-.11.016-.167.016a3.725 3.725 0 0 1-3.723-3.723c0-.116.022-.225.032-.338H56.27c-.006.113-.016.224-.016.338a5.943 5.943 0 0 0 5.94 5.941c.106 0 .21-.01.313-.016.47-.142.816-.574.816-1.092 0-.569-.416-1.038-.96-1.127z" class="color2b3b4e svgShape"></path><path fill="none" d="M66.4 58.143c0 2.257-1.784 4.086-4.016 4.187-.064.003-.124.019-.189.019a4.207 4.207 0 0 1-4.206-4.206c0-2.211 1.715-4.005 3.884-4.173.108-.008.212-.032.322-.032a4.207 4.207 0 0 1 4.206 4.205z"></path><path fill="#324f5e" d="M59.829 66.993c-2.947-1.848-4.916-5.117-4.916-8.854 0-3.728 1.969-6.998 4.916-8.846v-.406a9.562 9.562 0 0 0-2.37.956.542.542 0 0 1-.543.002l-1.984-1.156a.544.544 0 0 0-.659.086l-1.443 1.444a.544.544 0 0 0-.086.657l1.15 1.987a.54.54 0 0 1 0 .54 9.7 9.7 0 0 0-.923 2.22.541.541 0 0 1-.38.385l-2.215.587a.544.544 0 0 0-.405.526v2.044c0 .247.167.463.405.526l2.213.587c.188.05.331.198.383.386.215.78.528 1.524.92 2.21.095.17.099.375.002.543l-1.15 1.993a.545.545 0 0 0 .086.657l1.444 1.444c.174.175.445.21.658.085l1.984-1.155a.542.542 0 0 1 .544.002c.736.421 1.53.74 2.369.956v-.406z" class="color324a5e svgShape"></path><path fill="#3f5c6b" d="m49.51 47.72-5.87-.88a.813.813 0 0 1-.67-.6c-.12-.47-.28-.94-.46-1.39-.11-.3-.04-.65.2-.87l4.22-4.18c.29-.27.33-.73.09-1.04l-2.44-3.37c-.23-.31-.67-.43-1.02-.24l-5.26 2.74c-.3.16-.65.12-.91-.1-.37-.29-.77-.59-1.18-.86a.782.782 0 0 1-.35-.81l.96-5.85c.08-.4-.16-.79-.55-.91l-3.94-1.3a.839.839 0 0 0-.99.42l-2.64 5.31c-.13.3-.43.48-.74.46-.26-.02-.52-.02-.75-.02-.26 0-.5 0-.75.02a.8.8 0 0 1-.77-.46l-.98-1.97-1.66-3.34c-.2-.36-.61-.54-.98-.4l-3.94 1.28c-.4.12-.63.51-.56.91l.99 5.85c.06.31-.1.63-.37.81-.4.27-.81.57-1.19.88-.25.2-.61.24-.88.08l-5.26-2.74a.843.843 0 0 0-1.05.24l-2.44 3.37c-.24.31-.2.77.1 1.04l4.23 4.16c.24.24.3.57.18.89-.16.45-.31.92-.45 1.39-.08.32-.34.56-.65.6l-4.82.72c.33 2.19.89 4.29 1.64 6.31l3.18.47c.31.06.57.3.67.61.12.47.27.95.45 1.4.12.3.04.65-.2.89L10 58.9c1.16 1.97 2.53 3.79 4.06 5.46l2.06-1.08c.29-.13.65-.09.9.1.04.03.07.05.1.08.02.02.04.03.06.04.33.28.67.53 1.03.75.27.18.41.51.37.83l-.5 2.95c1.73 1.33 3.61 2.49 5.59 3.46l2.04-4.11a.79.79 0 0 1 .77-.43h1.48c.33-.02.63.16.76.43l2.64 5.32c.18.37.61.53.99.41l3.94-1.28a.78.78 0 0 0 .55-.9l-.98-5.85c-.06-.34.09-.65.37-.83.39-.28.79-.55 1.18-.87a.89.89 0 0 1 .89-.1l5.26 2.76c.35.18.81.08 1.04-.23l2.42-3.37c.24-.34.22-.77-.07-1.07l-4.24-4.15c-.24-.22-.29-.57-.2-.87.18-.47.34-.93.48-1.4.07-.31.33-.55.65-.61l5.87-.87c.39-.06.69-.39.69-.8v-4.14c0-.41-.3-.75-.69-.81zm-27.2 8.84c-.19-.16-.38-.33-.55-.5a8.93 8.93 0 0 1-.5-.55c-.23-.28-.45-.58-.64-.9a8.13 8.13 0 0 1-.66-1.36c-.12-.34-.22-.68-.29-1.03-.12-.52-.18-1.06-.18-1.62v-.02c0-4.24 3.46-7.7 7.72-7.7.26 0 .53.01.79.04l.51.07c.15.02.3.05.44.09.19.04.37.09.55.15.24.07.48.16.71.26.23.1.46.2.67.32l.45.26c.17.11.33.22.49.35l.84.72a8.835 8.835 0 0 1 .95 1.14c.14.21.27.42.38.64.12.22.23.45.33.68s.19.46.26.71c.07.21.13.44.17.67.12.52.18 1.06.18 1.62l-.18 1.62c-.04.23-.1.45-.17.67l-1.42 2.61c-.16.19-.33.37-.5.55a3 3 0 0 1-.42.38c-.22.21-.47.4-.72.57-.2.14-.42.27-.64.38-.43.24-.9.44-1.38.59-.24.08-.49.14-.74.19A7.7 7.7 0 0 1 22.9 57c-.21-.13-.4-.28-.59-.44z" class="color3f596b svgShape"></path><path fill="#324f5e" d="M23.05 28.48c-.2-.36-.61-.54-.98-.4l-3.94 1.28c-.4.12-.63.51-.56.91l.99 5.85c.06.31-.1.63-.37.81-.4.27-.81.57-1.19.88-.25.2-.61.24-.88.08l-5.26-2.74a.843.843 0 0 0-1.05.24l-2.44 3.37c-.24.31-.2.77.1 1.04l4.23 4.16c.24.24.3.57.18.89-.16.45-.31.92-.45 1.39-.08.32-.34.56-.65.6l-4.82.72c.33 2.19.89 4.29 1.64 6.31l3.18.47c.31.06.57.3.67.61.12.47.27.95.45 1.4.12.3.04.65-.2.89L10 58.9c1.16 1.97 2.53 3.79 4.06 5.46l2.06-1.08c.29-.13.65-.09.9.1.04.03.07.05.1.08l.06.06v-.02c-.77-2.89-1.2-6.04-1.2-9.3 0-.15 0-.31.01-.46.01-1.24.08-2.46.22-3.65.22-1.96.59-3.86 1.11-5.66.04-.18.1-.36.16-.54 1.49-4.94 4.03-9.14 7.23-12.07l-1.66-3.34z" class="color324a5e svgShape"></path><path fill="#2b424e" d="M35.45 42.35c-2.1-2.1-5.02-3.41-8.24-3.41-.7 0-1.38.06-2.05.18-3.31.59-6.13 2.57-7.84 5.31a11.499 11.499 0 0 0-1.77 6.17c0 1.09.16 2.14.44 3.14.55 1.96 1.59 3.71 2.98 5.11a11.65 11.65 0 0 0 9.61 3.33c2.68-.31 5.07-1.53 6.88-3.33 1.64-1.65 2.79-3.77 3.22-6.15v-.01c.13-.68.19-1.38.19-2.09 0-3.22-1.3-6.13-3.42-8.25zM22.9 57c-.2-.14-.4-.29-.59-.44-.19-.16-.38-.33-.55-.5a8.93 8.93 0 0 1-.5-.55c-.23-.28-.45-.58-.64-.9a8.13 8.13 0 0 1-.66-1.36 6.76 6.76 0 0 1-.29-1.03c-.12-.52-.18-1.06-.18-1.62v-.02c0-4.24 3.46-7.7 7.72-7.7.26 0 .53.01.79.04l.51.07c.15.02.3.05.44.09.19.04.37.09.55.15.24.07.48.16.71.26.23.1.45.21.67.32l.45.26c.17.11.33.22.49.35l.84.72a8.835 8.835 0 0 1 .95 1.14c.13.21.26.42.38.64.12.22.23.45.33.68s.19.46.26.71c.07.21.13.44.17.67.12.52.18 1.06.18 1.62l-.18 1.62c-.04.23-.1.45-.17.67l-1.42 2.61c-.16.19-.33.37-.5.55-.13.13-.27.26-.42.38-.22.21-.47.4-.72.57-.21.13-.42.26-.64.38-.43.24-.9.44-1.38.59-.24.08-.49.14-.74.19-.5.11-1.02.16-1.55.16A7.7 7.7 0 0 1 22.9 57z" class="color2b3b4e svgShape"></path><path fill="#22353f" d="M17.536 50.598c.96 0 1.736-.699 1.94-1.636a7.722 7.722 0 0 1 2.09-3.82 7.686 7.686 0 0 1 3.822-2.089c.945-.197 1.635-.985 1.635-1.95 0-1.202-1.084-2.187-2.266-1.95a11.615 11.615 0 0 0-5.989 3.191 11.61 11.61 0 0 0-3.188 5.981c-.232 1.187.748 2.273 1.956 2.273zm19.158.181c-.96 0-1.736.699-1.94 1.636a7.722 7.722 0 0 1-2.09 3.82 7.685 7.685 0 0 1-3.822 2.089c-.945.197-1.635.985-1.635 1.95 0 1.202 1.084 2.187 2.266 1.95a11.615 11.615 0 0 0 5.988-3.19 11.61 11.61 0 0 0 3.189-5.982c.232-1.186-.748-2.273-1.956-2.273z" class="color22303f svgShape"></path></svg>